<?xml version="1.0" encoding="utf-8"?>
<!-- Generator: Avocode 2.5.4 - http://avocode.com -->
<svg height="32" width="114" xmlns:xlink="http://www.w3.org/1999/xlink" xmlns="http://www.w3.org/2000/svg" viewBox="0 0 114 32">
    <path fill="#ffffff" fill-rule="evenodd" d="M 42.49 12.27 L 42.49 22.2 L 39.72 22.2 L 39.72 12.27 L 36.42 12.27 L 36.42 9.8 L 45.8 9.8 L 45.8 12.27 L 42.49 12.27" />
    <path fill="#ffffff" fill-rule="evenodd" d="M 52.94 22.2 L 52.94 17.21 L 48.97 17.21 L 48.97 22.2 L 46.2 22.2 L 46.2 9.8 L 48.97 9.8 L 48.97 14.73 L 52.94 14.73 L 52.94 9.8 L 55.71 9.8 L 55.71 22.2 L 52.94 22.2" />
    <path fill="#ffffff" fill-rule="evenodd" d="M 63.58 13.65 C 63.58 12.68 62.97 12.09 61.58 12.09 C 60.2 12.09 59.59 12.68 59.59 13.65 L 59.59 18.35 C 59.59 19.32 60.2 19.91 61.58 19.91 C 62.97 19.91 63.58 19.32 63.58 18.35 L 63.58 13.65 L 63.58 13.65 Z M 66.35 18.59 C 66.35 20.47 65.05 22.39 61.58 22.39 C 58.11 22.39 56.82 20.47 56.82 18.59 L 56.82 13.41 C 56.82 11.53 58.11 9.61 61.58 9.61 C 65.05 9.61 66.35 11.53 66.35 13.41 L 66.35 18.59 L 66.35 18.59 Z M 66.35 18.59" />
    <path fill="#ffffff" fill-rule="evenodd" d="M 73.9 13.58 C 73.9 12.65 73.55 12.27 72.42 12.27 L 70.22 12.27 L 70.22 15.93 L 72.42 15.93 C 73.6 15.93 73.9 15.5 73.9 14.57 L 73.9 13.58 L 73.9 13.58 Z M 71.85 18.35 L 70.22 18.35 L 70.22 22.2 L 67.45 22.2 L 67.45 9.8 L 72.57 9.8 C 75.56 9.8 76.67 10.99 76.67 13.32 L 76.67 14.84 C 76.67 16.39 76.11 17.43 74.88 17.96 L 77.85 22.2 L 74.56 22.2 L 71.85 18.35 L 71.85 18.35 Z M 71.85 18.35" />
    <path fill="#ffffff" fill-rule="evenodd" d="M 82.26 22.39 C 79.27 22.39 77.76 20.84 77.76 18.59 L 77.76 13.41 C 77.76 11.12 79.27 9.61 82.26 9.61 C 83.68 9.61 85.14 9.8 86.2 10 L 85.86 12.44 C 84.79 12.27 83.15 12.14 82.26 12.14 C 80.88 12.14 80.53 12.87 80.53 13.84 L 80.53 18.11 C 80.53 19.07 80.88 19.88 82.26 19.88 C 82.82 19.88 83.19 19.86 83.91 19.76 L 83.91 15.96 L 86.51 15.96 L 86.51 21.79 C 85.16 22.19 83.68 22.39 82.26 22.39" />
    <path fill="#ffffff" fill-rule="evenodd" d="M 91.05 17.45 L 93.88 17.45 L 92.47 12.25 L 91.05 17.45 L 91.05 17.45 Z M 98.09 22.2 L 95.21 22.2 L 94.54 19.78 L 90.42 19.78 L 89.76 22.2 L 86.88 22.2 L 90.63 9.8 L 94.32 9.8 L 98.09 22.2 L 98.09 22.2 Z M 98.09 22.2" />
    <path fill="#ffffff" fill-rule="evenodd" d="M 102.63 12.27 L 102.63 22.2 L 99.86 22.2 L 99.86 12.27 L 96.55 12.27 L 96.55 9.8 L 105.93 9.8 L 105.93 12.27 L 102.63 12.27" />
    <path fill="#ffffff" fill-rule="evenodd" d="M 106.24 22.2 L 106.24 9.8 L 113.97 9.8 L 113.97 12.27 L 109 12.27 L 109 14.55 L 113.58 14.55 L 113.58 17.02 L 109 17.02 L 109 19.73 L 113.97 19.73 L 113.97 22.2 L 106.24 22.2" />
    <path fill="#ffffff" fill-rule="evenodd" d="M 22.95 14.35 L 18.64 13.51 L 18.64 21.64 L 15.86 22.27 L 13.07 21.64 L 13.07 13.51 L 8.76 14.35 L 8.76 11.43 L 15.86 9.55 L 22.95 11.43 L 22.95 14.35 L 22.95 14.35 Z M 21.46 23.84 L 15.86 25.09 L 10.25 23.84 L 10.25 15.12 L 12.29 14.71 L 12.29 22.18 L 15.86 23.22 L 19.42 22.18 L 19.42 14.71 L 21.46 15.12 L 21.46 23.84 L 21.46 23.84 Z M 10.13 8.37 L 15.86 6.91 L 21.58 8.37 L 21.58 10.29 L 15.86 8.79 L 10.13 10.29 L 10.13 8.37 L 10.13 8.37 Z M 15.86 0 C 7.1 0 0 7.16 0 16 C 0 24.84 7.1 32 15.86 32 C 24.61 32 31.71 24.84 31.71 16 C 31.71 7.16 24.61 0 15.86 0 L 15.86 0 Z M 15.86 0" />
</svg>