<?xml version="1.0" encoding="utf-8"?>
<!-- Generator: Avocode 2.5.4 - http://avocode.com -->
<svg height="63" width="63" xmlns:xlink="http://www.w3.org/1999/xlink" xmlns="http://www.w3.org/2000/svg" viewBox="0 0 63 63">
    <path fill="#ffffff" fill-rule="evenodd" d="M 45.6 28.24 L 37.04 26.6 L 37.04 42.61 L 31.5 43.84 L 25.96 42.61 L 25.96 26.6 L 17.4 28.24 L 17.4 22.5 L 31.5 18.81 L 45.6 22.5 L 45.6 28.24 L 45.6 28.24 Z M 42.63 46.94 L 31.5 49.39 L 20.37 46.94 L 20.37 29.77 L 24.42 28.95 L 24.42 43.67 L 31.5 45.71 L 38.58 43.67 L 38.58 28.95 L 42.63 29.77 L 42.63 46.94 L 42.63 46.94 Z M 20.12 16.48 L 31.5 13.61 L 42.88 16.48 L 42.88 20.27 L 31.5 17.3 L 20.12 20.27 L 20.12 16.48 L 20.12 16.48 Z M 31.5 0 C 14.1 0 0 14.1 0 31.5 C 0 48.9 14.1 63 31.5 63 C 48.9 63 63 48.9 63 31.5 C 63 14.1 48.9 0 31.5 0 L 31.5 0 Z M 31.5 0" />
</svg>